<svg xmlns="http://www.w3.org/2000/svg" fill="none" viewBox="0 0 128 128">
    <path
        d="M1115 5279 c-23 -22 -92 -72 -118 -86 -16 -8 -69 -23 -119 -34 -49
-11 -106 -28 -126 -39 -21 -10 -80 -62 -132 -115 -109 -112 -149 -135 -292
-171 -171 -44 -287 -112 -304 -181 -4 -13 -10 -23 -15 -23 -5 0 -9 -87 -9
-195 0 -123 4 -195 10 -195 6 0 10 -10 10 -23 0 -41 37 -152 96 -287 57 -131
58 -138 59 -225 l0 -90 52 -31 c170 -101 453 -54 624 103 69 65 105 128 129
228 12 48 22 71 33 73 15 3 17 -16 17 -191 0 -275 27 -392 145 -627 49 -97 59
-127 56 -155 0 -6 -24 -35 -52 -64 -67 -70 -107 -157 -118 -254 -5 -41 -7 -88
-4 -104 17 -111 28 -95 28 40 0 107 2 116 32 177 34 68 117 165 134 155 17
-11 9 -55 -20 -102 -40 -65 -87 -209 -102 -312 -24 -172 7 -299 101 -402 44
-49 54 -41 14 12 -66 88 -95 174 -95 283 0 76 24 193 46 223 11 15 13 10 19
-38 16 -128 33 -159 89 -159 7 0 23 -21 36 -47 12 -27 45 -82 72 -124 33 -50
47 -82 43 -93 -4 -11 2 -29 17 -49 24 -32 24 -33 23 -302 -1 -351 -20 -467
-109 -645 -42 -83 -91 -149 -249 -335 -164 -193 -292 -363 -378 -505 -109
-180 -95 -181 90 -4 68 64 125 115 127 112 7 -7 -20 -98 -49 -168 -90 -212
-117 -347 -38 -188 43 85 85 142 63 85 -5 -14 -24 -53 -40 -86 -35 -68 -37
-81 -17 -81 8 0 27 23 42 50 35 64 49 64 24 0 l-20 -50 345 0 c190 0 345 2
345 5 0 3 -13 27 -30 53 -16 27 -43 79 -60 115 -31 68 -73 207 -63 207 3 0 21
-17 38 -37 53 -61 50 -32 -4 52 -70 107 -70 141 -1 62 21 -23 40 -40 43 -37 3
3 -19 45 -49 93 -60 100 -124 256 -130 319 l-4 43 13 -35 c41 -104 145 -277
189 -317 21 -18 21 -18 14 7 -28 92 -30 118 -11 206 48 234 56 290 61 434 6
155 -10 447 -41 723 -7 67 -12 124 -10 125 2 2 21 -8 42 -22 52 -36 148 -64
245 -72 62 -6 86 -12 103 -28 12 -12 88 -158 169 -326 160 -333 211 -414 303
-480 31 -22 58 -38 61 -36 2 3 -15 36 -37 74 -76 131 -112 242 -209 642 -22
91 -43 173 -47 182 -6 14 5 20 62 37 37 11 97 25 132 31 109 19 178 64 241
155 17 25 33 45 35 45 3 0 22 -15 43 -34 45 -41 122 -83 167 -92 22 -4 45 0
66 10 18 9 34 16 37 16 3 0 2 -70 -2 -155 -6 -135 -5 -155 8 -155 9 0 29 24
46 53 44 77 38 40 -17 -101 -13 -35 -23 -66 -20 -68 2 -2 15 5 30 16 46 37 47
44 -20 -190 -39 -138 -67 -295 -49 -279 4 4 22 64 41 135 70 260 101 328 44
94 -41 -168 -48 -351 -24 -610 16 -171 16 -248 -2 -363 -12 -79 -18 -18 -18
186 -1 125 -6 247 -14 297 -17 104 -33 140 -26 55 2 -33 7 -162 11 -286 5
-206 4 -229 -13 -265 l-18 -39 -3 103 c-1 56 -7 102 -11 102 -5 0 -12 -64 -16
-142 -11 -228 -42 -346 -125 -473 -22 -34 -40 -64 -40 -68 0 -10 48 -9 52 1 1
4 35 20 73 35 252 98 438 310 514 587 11 40 23 76 27 79 15 13 -5 -157 -24
-206 -11 -29 -52 -104 -91 -168 -39 -63 -71 -117 -71 -120 0 -32 88 61 137
144 23 40 39 59 41 48 6 -32 -38 -109 -99 -172 -72 -75 -75 -100 -6 -55 26 18
52 30 58 28 16 -5 -102 -93 -173 -129 -31 -16 -59 -33 -63 -39 -4 -7 76 -10
244 -10 283 0 263 -7 235 81 -25 74 -8 72 26 -4 18 -39 36 -67 45 -67 19 0 19
5 -5 76 -32 93 -18 98 19 7 21 -53 39 -83 48 -83 23 0 11 57 -37 173 -49 121
-51 156 -4 63 19 -37 37 -66 40 -64 2 3 -13 56 -33 119 -25 79 -38 141 -42
202 -3 48 -4 87 -1 87 3 0 19 -23 35 -51 55 -93 290 -310 323 -298 14 6 -13
102 -53 184 -72 151 -192 314 -384 525 -266 292 -327 399 -366 640 -23 139
-33 846 -15 1055 15 182 19 199 88 356 59 134 108 273 156 447 14 51 36 112
48 135 l23 42 5 -95 c5 -79 12 -108 38 -164 58 -125 195 -229 357 -271 69 -18
237 -20 284 -4 35 12 46 28 65 94 16 51 124 211 206 305 111 126 199 291 231
433 8 31 17 57 21 57 5 0 8 54 8 120 0 66 -4 120 -9 120 -5 0 -14 13 -21 29
-27 67 -101 118 -235 161 -118 38 -146 57 -270 185 -108 112 -125 125 -175
139 -48 14 -66 27 -140 105 -92 95 -121 111 -211 111 -89 0 -163 -33 -383
-173 -49 -32 -99 -57 -112 -57 -13 0 -51 24 -91 59 -95 82 -169 126 -259 157
-70 23 -101 27 -294 34 -118 5 -255 16 -305 25 -182 33 -332 21 -469 -40 -89
-39 -106 -35 -168 37 -143 167 -212 229 -272 244 -14 3 -26 10 -26 15 0 12
-172 11 -185 -2z m186 -87 c52 -26 111 -73 232 -188 155 -148 70 -117 -141 51
-146 116 -160 125 -197 125 -74 0 -259 -113 -372 -228 -97 -98 -165 -193 -302
-419 -123 -205 -167 -271 -266 -403 -97 -128 -101 -131 -114 -83 -6 21 -18 67
-28 103 -14 49 -18 103 -18 225 0 154 1 162 27 211 44 84 97 122 255 185 98
39 132 58 433 248 135 85 270 165 300 178 66 28 126 27 191 -5z m-46 -104 c43
-16 140 -75 211 -129 34 -26 88 -57 119 -68 l57 -21 87 39 c47 22 113 47 146
57 81 23 227 21 385 -5 84 -14 171 -21 265 -21 268 -1 388 -43 554 -194 128
-116 147 -119 313 -42 185 86 282 106 360 73 138 -58 348 -447 374 -692 5 -47
-7 -87 -22 -73 -3 4 -17 60 -30 125 -30 146 -55 226 -104 325 -95 192 -186
282 -298 295 -92 10 -287 -57 -333 -115 -26 -34 -24 -89 7 -208 36 -138 84
-337 84 -351 0 -28 -16 -9 -43 47 -80 168 -288 283 -512 284 -126 0 -191 -21
-244 -79 -22 -24 -41 -54 -41 -65 0 -28 11 -25 46 11 73 77 186 108 323 89
141 -19 291 -115 356 -226 57 -98 80 -334 55 -572 -29 -278 -135 -568 -254
-699 -64 -70 -216 -177 -230 -163 -7 7 -11 57 -11 123 0 125 17 191 67 265 27
38 27 42 9 42 -10 0 -31 -14 -46 -31 -67 -80 -95 -185 -95 -359 0 -135 -10
-178 -52 -225 -36 -42 -44 -42 -82 -9 -33 29 -29 50 12 69 24 11 29 31 10 38
-22 8 -51 -13 -159 -118 -183 -178 -294 -212 -537 -164 -117 24 -132 31 -132
64 0 31 15 41 95 61 136 33 231 99 280 195 36 69 40 130 15 224 -17 66 -28 87
-62 122 -75 76 -194 113 -369 113 -47 0 -108 -7 -136 -15 -99 -29 -194 -147
-196 -243 -1 -69 31 -194 62 -244 19 -29 47 -54 90 -78 126 -71 126 -71 126
-120 l0 -45 -85 1 c-144 2 -274 67 -320 159 -22 45 -24 61 -24 170 1 136 15
198 71 308 44 89 183 316 234 384 21 29 39 58 39 66 0 18 65 48 87 40 10 -3
42 -29 70 -56 29 -28 55 -48 58 -46 9 10 -52 86 -88 108 -52 32 -87 27 -139
-19 -47 -41 -150 -188 -209 -297 -18 -35 -36 -63 -40 -63 -3 0 -9 57 -12 128
-6 148 -30 237 -78 295 -33 40 -147 123 -156 113 -11 -10 29 -98 73 -162 82
-120 114 -211 114 -331 0 -59 -23 -193 -37 -216 -4 -6 -22 63 -40 153 -18 91
-35 171 -38 178 -11 29 -24 -2 -20 -46 l5 -47 -30 60 c-32 66 -81 215 -101
310 -19 89 -19 499 0 544 13 30 16 31 22 15 4 -10 8 -37 9 -59 1 -85 72 -177
146 -191 104 -19 256 19 312 79 35 38 40 130 12 274 -27 144 -34 169 -46 165
-5 -2 -8 -14 -6 -28 4 -25 3 -25 -49 13 -47 34 -60 38 -111 38 -47 -1 -72 -8
-137 -42 -79 -40 -80 -40 -67 -14 26 48 165 132 275 165 142 42 277 -8 331
-121 28 -58 30 -157 6 -249 -34 -130 -6 -116 35 16 45 146 24 257 -63 336 -50
45 -87 61 -163 69 -70 8 -139 -6 -208 -41 -27 -13 -53 -24 -58 -24 -5 0 27 72
71 159 99 197 100 206 24 278 -30 29 -85 67 -122 85 -56 28 -78 33 -137 33
-97 0 -148 -27 -260 -140 -113 -113 -206 -251 -279 -414 -67 -150 -81 -168
-73 -92 20 172 298 547 479 646 83 45 127 50 203 23z m40 -140 c63 -33 95 -67
98 -104 2 -28 0 -29 -46 -32 -46 -3 -49 -1 -112 59 -36 34 -67 60 -70 57 -3
-3 8 -31 24 -62 34 -64 27 -72 -18 -20 -50 57 -84 112 -76 125 13 21 143 6
200 -23z m2499 -74 c22 -15 82 -68 131 -117 153 -153 364 -313 521 -396 89
-47 129 -84 161 -148 24 -51 27 -68 26 -148 -1 -105 -21 -191 -68 -289 -36
-76 -134 -227 -151 -233 -5 -2 -16 14 -23 34 -8 21 -31 83 -53 138 -22 55 -62
177 -89 270 -87 295 -154 457 -263 632 -79 128 -222 253 -290 253 -19 0 -109
-38 -238 -101 -191 -94 -210 -101 -234 -90 -31 14 -26 22 26 37 21 6 99 46
174 89 75 42 156 83 179 91 62 20 140 11 191 -22z m-2546 -120 c30 -8 28 -24
-3 -24 -18 0 -25 -5 -25 -20 0 -12 -5 -17 -13 -14 -10 4 -13 -7 -11 -43 1 -26
-3 -53 -8 -60 -5 -6 -7 -39 -5 -71 4 -53 3 -61 -13 -65 -28 -7 -46 12 -63 68
-40 129 -29 182 46 216 45 20 60 22 95 13z m2487 -104 c19 -16 12 -24 -72 -92
-70 -55 -99 -58 -40 -4 25 22 35 39 31 50 -7 18 -10 17 -82 -37 -58 -44 -119
-55 -147 -26 -14 14 -14 18 6 42 24 31 80 63 136 77 48 12 149 6 168 -10z
m-2893 -63 c70 -42 99 -95 107 -196 5 -58 10 -76 22 -79 11 -2 19 10 28 38 14
47 28 47 54 2 21 -36 35 -136 19 -145 -14 -9 -123 47 -154 80 -31 33 -48 73
-48 114 0 68 -51 123 -110 121 -38 -2 -39 -1 -30 24 28 72 49 80 112 41z
m2784 -138 c31 -12 62 -31 71 -45 32 -49 -2 -161 -70 -231 -24 -26 -39 -33
-69 -33 -39 0 -51 13 -22 24 9 4 14 13 10 22 -3 8 5 36 18 62 21 42 22 50 10
67 -19 25 -18 32 6 52 26 23 25 33 -2 30 -15 -1 -23 4 -26 18 -3 11 -13 26
-23 33 -11 7 -17 18 -13 23 7 12 32 7 110 -22z m-2816 -114 c58 -86 75 -101
159 -145 57 -30 66 -39 69 -65 2 -22 -6 -41 -28 -67 -26 -31 -38 -38 -68 -38
-56 0 -106 42 -176 149 -118 182 -123 195 -89 266 l17 35 34 -32 c19 -18 56
-64 82 -103z m648 39 c35 -14 102 -70 102 -85 0 -3 -21 5 -47 18 -43 22 -57
24 -133 20 -47 -3 -102 -12 -122 -21 -47 -20 -101 -67 -129 -112 -12 -19 -24
-33 -26 -30 -7 7 40 85 72 119 41 43 95 75 155 91 71 19 83 19 128 0z m47
-144 c15 -16 16 -22 5 -35 -16 -20 -59 -16 -73 6 -27 42 33 68 68 29z m2489
-26 c3 -9 6 -29 6 -45 0 -27 -3 -29 -35 -29 -62 0 -115 -39 -150 -110 -32 -65
-98 -120 -143 -120 -10 0 -40 -11 -66 -25 l-47 -25 6 22 c23 77 94 198 117
198 6 0 7 -23 3 -60 -10 -87 13 -81 54 14 42 94 78 138 143 170 59 30 103 34
112 10z m-2610 -37 c9 -16 7 -22 -11 -34 -27 -18 -30 -49 -6 -75 9 -10 13 -21
9 -26 -14 -14 -66 57 -66 90 0 57 49 87 74 45z m-835 -33 c58 -19 132 -50 165
-68 233 -126 219 -116 212 -150 -36 -178 -243 -302 -473 -282 -41 3 -82 10
-93 16 -36 19 -170 247 -170 289 0 6 26 40 58 78 32 37 73 90 91 116 32 47 35
49 70 42 20 -3 83 -22 140 -41z m664 -124 c38 -70 74 -90 164 -90 62 0 80 4
138 35 79 41 83 25 4 -19 -49 -28 -62 -31 -144 -31 -73 0 -97 4 -125 20 -36
22 -63 61 -74 108 -10 42 6 32 37 -23z m2805 28 c32 -32 -11 -113 -117 -218
-105 -105 -199 -160 -271 -160 -36 0 -90 50 -90 82 0 41 68 90 145 103 52 9
110 43 177 103 70 63 121 102 134 102 5 0 15 -5 22 -12z m240 -310 c6 -24 30
-81 52 -128 32 -65 41 -93 37 -117 -9 -52 -65 -121 -160 -194 -101 -79 -137
-88 -251 -70 -142 23 -269 109 -322 217 -51 104 -33 164 53 177 22 4 88 27
147 52 138 58 306 101 402 104 29 1 33 -3 42 -41z m-2255 -787 c37 -14 54 -49
34 -69 -14 -13 -20 -13 -56 2 -23 9 -66 16 -97 16 -82 0 -122 31 -76 60 20 13
154 6 195 -9z m-717 -155 c-5 -21 -71 -76 -90 -76 -8 0 20 72 50 131 l28 54 9
-42 c5 -23 7 -53 3 -67z m1865 3 c-18 -52 -57 -95 -116 -129 -90 -52 -60 -67
39 -19 22 10 41 17 43 15 2 -1 -4 -22 -12 -46 -35 -100 -104 -149 -207 -150
-32 0 -58 4 -58 9 0 14 61 143 82 174 11 15 47 46 81 69 34 23 81 59 105 81
24 21 46 36 49 33 3 -3 0 -19 -6 -37z m-1867 -91 c9 -37 7 -186 -3 -193 -18
-10 -33 36 -39 117 -4 62 -2 82 9 89 21 13 26 11 33 -13z m1374 -221 c2 -11
-43 -66 -127 -155 -137 -144 -222 -206 -348 -257 -176 -71 -434 -46 -576 55
-42 30 -73 66 -123 143 -71 107 -93 152 -81 163 4 4 22 -3 40 -17 142 -106
264 -159 411 -180 156 -22 412 20 541 89 27 15 86 62 130 105 63 62 85 77 105
75 14 -2 26 -10 28 -21z m369 -51 c-3 -8 -108 -71 -152 -90 -17 -8 19 -27 40
-21 11 3 37 8 58 11 32 6 37 4 37 -12 0 -23 -33 -79 -68 -116 -29 -32 -59 -35
-105 -11 -48 24 -134 92 -141 110 -4 9 5 34 20 57 54 83 49 81 189 82 82 0
124 -3 122 -10z m52 -1099 c-10 -105 -10 -174 -1 -304 24 -328 14 -497 -32
-558 -12 -16 -12 -10 2 30 14 43 16 84 13 285 -8 480 -6 583 8 638 7 29 15 51
17 49 3 -2 -1 -65 -7 -140z" />
    <path
        d="M2346 4809 c-31 -152 -53 -230 -91 -314 -48 -106 -75 -193 -75 -244
0 -55 -78 -423 -109 -516 -35 -103 -37 -112 -16 -95 38 32 95 229 134 465 12
72 26 157 32 190 6 33 28 98 49 145 21 47 47 115 58 151 27 87 45 220 33 232
-6 6 -12 1 -15 -14z" />
    <path
        d="M1620 4247 c0 -3 7 -34 16 -68 10 -38 15 -87 12 -126 -3 -53 -2 -61
10 -50 23 24 26 115 5 181 -10 33 -24 61 -31 64 -6 2 -12 1 -12 -1z" />
    <path
        d="M2850 4180 c-29 -39 -65 -102 -81 -141 -16 -38 -45 -99 -65 -135 -20
-36 -34 -67 -32 -70 3 -2 16 5 31 16 30 24 37 25 37 6 0 -7 9 -25 21 -40 59
-75 281 -124 371 -82 52 25 107 83 134 141 22 48 23 49 23 19 1 -48 -69 -147
-122 -173 -53 -25 -143 -28 -236 -6 -35 9 -66 13 -69 10 -9 -9 87 -46 145 -55
135 -22 235 31 296 156 11 24 27 44 34 44 23 0 14 72 -17 138 -35 75 -116 163
-174 192 -51 24 -144 27 -204 6 l-41 -15 6 30 c3 16 3 29 0 29 -3 0 -29 -32
-57 -70z m263 -2 c55 -16 137 -95 175 -166 39 -72 42 -102 6 -47 -39 59 -94
114 -135 135 -64 34 -159 53 -228 46 -71 -6 -73 5 -5 29 49 18 134 19 187 3z
m-43 -133 c40 -21 41 -55 2 -55 -35 0 -72 26 -72 51 0 24 29 25 70 4z m-150
-188 c0 -4 -9 -3 -20 3 -12 7 -20 21 -20 38 l0 27 20 -30 c11 -16 20 -34 20
-38z m-70 -61 c7 -9 9 -16 6 -16 -13 0 -56 32 -56 42 0 11 32 -6 50 -26z" />
    <path
        d="M1683 3900 c-51 -55 -93 -105 -93 -111 0 -16 63 36 108 90 38 45 89
121 80 121 -1 0 -45 -45 -95 -100z" />
    <path d="M2667 3921 c-49 -81 -66 -121 -51 -121 15 0 114 165 114 189 0 26
-18 7 -63 -68z" />
    <path d="M1649 3932 c-81 -87 -122 -168 -53 -101 36 35 90 116 82 124 -2 3
-16 -8 -29 -23z" />
    <path
        d="M2520 3854 c-14 -37 -12 -99 4 -139 31 -73 49 -24 21 55 -20 57 -19
60 10 25 13 -16 24 -25 25 -19 0 14 -39 104 -46 104 -2 0 -9 -12 -14 -26z" />
    <path
        d="M3232 3561 c-47 -58 -116 -99 -227 -133 -55 -17 -117 -39 -138 -50
-60 -30 -113 -84 -138 -141 -21 -46 -24 -66 -23 -175 1 -78 5 -127 13 -135 21
-21 32 9 42 114 11 121 42 196 100 242 20 15 86 46 147 67 130 45 192 84 226
143 55 93 53 137 -2 68z" />
    <path d="M2065 3371 c-47 -23 -35 -25 52 -10 34 6 60 15 57 20 -9 15 -67 10
-109 -10z" />
    <path
        d="M2415 3240 c-3 -6 1 -13 10 -16 21 -8 48 -64 70 -142 20 -69 38 -77
43 -17 4 46 -20 114 -55 155 -25 30 -56 39 -68 20z" />
    <path
        d="M3111 3065 c-30 -35 -151 -210 -151 -219 0 -3 13 0 29 5 59 21 180
179 181 237 0 23 -28 12 -59 -23z" />
    <path
        d="M1720 1884 c0 -4 31 -102 69 -218 105 -316 110 -341 161 -762 35
-290 112 -521 268 -802 76 -138 93 -138 47 -1 -34 99 -52 206 -60 369 -4 74
-12 146 -18 160 -6 15 -11 104 -12 215 -1 177 -3 196 -29 280 -15 50 -32 94
-37 99 -17 18 -19 -2 -5 -45 27 -79 44 -172 47 -249 3 -130 -4 -150 -11 -30
-5 76 -18 159 -39 244 -31 124 -37 138 -147 327 -63 109 -137 248 -166 309
-28 60 -55 110 -59 110 -5 0 -9 -3 -9 -6z" />

</svg>